# xmcd
#
# Track frame offsets:
#	150
#	12373
#	27214
#	42972
#	56632
#	70383
#	84739
#	100595
#	113269
#	127623
#	143095
#	157213
#	172974
#	183681
#	197868
#	210301
#	224862
#	243245
#
# Disc length: 3463 seconds
#
# Revision: 1
# Processed by: cddbd v1.5.2PL0 Copyright (c) Steve Scherf et al.
# Submitted via: audiograbber 1.83.01
#
DISCID=fa0d8512
DTITLE=De Raddraaiers - Op deinende golven
DYEAR=2006
DGENRE=Shanty
TTITLE0=De Raddraaiers - Jacky
TTITLE1=De Raddraaiers - Het visserslied
TTITLE2=De Raddraaiers - De Kroeg van O'Connel
TTITLE3=De Raddraaiers - Een zeeman heeft het water lief
TTITLE4=De Raddraaiers - Van Doggersbank tot Barendszee
TTITLE5=De Raddraaiers - Hoge blonde duinen
TTITLE6=De Raddraaiers - De verliefde kapitein
TTITLE7=De Raddraaiers - `Zwart zijden lint
TTITLE8=De Raddraaiers - Zeeman neem mij met je mee
TTITLE9=De Raddraaiers - Botany Bay
TTITLE10=De Raddraaiers - Zeemanslied
TTITLE11=De Raddraaiers - De Vuurtoren
TTITLE12=De Raddraaiers - Vrij zijn als een vogel
TTITLE13=De Raddraaiers - Zie ik de pieren van IJmuiden
TTITLE14=De Raddraaiers - De zeilschepenblues
TTITLE15=De Raddraaiers - Bertus de ketelbink
TTITLE16=De Raddraaiers - Deze zee
TTITLE17=De Raddraaiers - Als ik op zee was
EXTD=
EXTT0=
EXTT1=
EXTT2=
EXTT3=
EXTT4=
EXTT5=
EXTT6=
EXTT7=
EXTT8=
EXTT9=
EXTT10=
EXTT11=
EXTT12=
EXTT13=
EXTT14=
EXTT15=
EXTT16=
EXTT17=
PLAYORDER=
